<svg width="40" height="45" viewBox="0 0 40 45" fill="none" xmlns="http://www.w3.org/2000/svg">
<g clip-path="url(#clip0_20_939)">
<path d="M8.30859 0C6.02631 0 4.33745 2.82022 4.41307 5.87868C4.48573 8.81691 4.39135 12.6227 3.71278 15.7262C3.03217 18.8387 1.88095 20.8103 0.000694275 21.0635V23.9215C1.88095 24.1747 3.03217 26.1463 3.71278 29.259C4.39135 32.3625 4.48573 36.1679 4.41307 39.1063C4.33745 42.1643 6.02631 44.985 8.3089 44.985H31.6947C33.9771 44.985 35.6655 42.1648 35.5899 39.1063C35.5174 36.1681 35.6116 32.3625 36.2902 29.259C36.9712 26.1465 38.1193 24.1745 39.9996 23.9215V21.0635C38.1193 20.8103 36.9712 18.8387 36.2903 15.7262C35.6116 12.6232 35.5174 8.81713 35.5899 5.87868C35.6655 2.82066 33.9771 0 31.6947 0H8.30828H8.30859ZM27.1187 27.6911C27.1187 31.9026 24.8938 34.4565 21.2014 34.4565H14.9156C14.7358 34.4565 14.5634 34.3556 14.4363 34.1761C14.3092 33.9966 14.2378 33.7532 14.2378 33.4994V11.4856C14.2378 11.3599 14.2553 11.2354 14.2894 11.1192C14.3234 11.0031 14.3734 10.8976 14.4363 10.8087C14.4993 10.7198 14.574 10.6492 14.6563 10.6011C14.7385 10.553 14.8267 10.5282 14.9158 10.5282H21.1654C24.2442 10.5282 26.2648 12.883 26.2648 16.498C26.2648 19.0354 24.9055 21.3071 23.1738 21.7048V21.8374C25.5314 22.2024 27.1187 24.5074 27.1187 27.6911ZM20.5158 13.5624H16.9319V20.7095H19.9506C22.284 20.7095 23.5708 19.3829 23.5708 17.0115C23.5708 14.7896 22.4641 13.5624 20.5158 13.5624ZM16.9319 23.5454V31.4215H20.6478C23.0771 31.4215 24.3642 30.0452 24.3642 27.4586C24.3642 24.8715 23.0413 23.5449 20.4915 23.5449H16.9319V23.5454Z" fill="#7E13F8"/>
</g>
<defs>
<clipPath id="clip0_20_939">
<rect width="40" height="45" fill="white"/>
</clipPath>
</defs>
</svg>
