<svg width="40" height="45" viewBox="0 0 40 45" fill="none" xmlns="http://www.w3.org/2000/svg">
<path d="M7.37751 38.2514L4.57001 2.8125H35.43L32.6188 38.2458L19.9813 42.1875L7.37751 38.2514Z" fill="#1572B6"/>
<path d="M20 39.1753L30.2125 35.9901L32.615 5.71075H20V39.1753Z" fill="#33A9DC"/>
<path d="M20 18.5498H25.1125L25.465 14.099H20V9.75232H29.6875L29.595 10.9181L28.6462 22.8965H20V18.5498Z" fill="white"/>
<path d="M20.0237 29.8378L20.0062 29.8434L15.7037 28.5356L15.4287 25.0692H11.55L12.0912 31.8937L20.005 34.3659L20.0237 34.3603V29.8378Z" fill="#EBEBEB"/>
<path d="M24.7838 22.7123L24.3188 28.5328L20.01 29.8406V34.3631L27.93 31.8937L27.9888 31.1597L28.66 22.7123H24.7838Z" fill="white"/>
<path d="M20.0137 9.75232V14.099H10.6812L10.6037 13.1217L10.4275 10.9181L10.335 9.75232H20.0137ZM20 18.5498V22.8965H15.7512L15.6737 21.9192L15.4987 19.7156L15.4062 18.5498H20Z" fill="#EBEBEB"/>
</svg>
