<svg width="40" height="45" viewBox="0 0 40 45" fill="none" xmlns="http://www.w3.org/2000/svg">
<path d="M17.6687 5.625H22.625V31.1752C20.5093 31.6636 18.356 31.9156 16.1962 31.9275C10.1437 31.9205 6.99374 28.8787 6.99374 23.0372C6.99374 17.4122 10.335 13.7559 15.5137 13.7559C16.2401 13.74 16.965 13.8346 17.6687 14.0372V5.625ZM17.6687 18.4809C17.1299 18.281 16.5647 18.1859 15.9975 18.1997C13.4975 18.1997 12.0437 19.9195 12.0437 22.9331C12.0437 25.868 13.4275 27.488 15.9662 27.488C16.536 27.4878 17.105 27.4408 17.6687 27.3473V18.488V18.4809Z" fill="#44B78B"/>
<path d="M30.5 14.1457V26.9425C30.5 31.3483 30.2063 33.4661 29.3463 35.2929C28.4686 37.1502 27.0334 38.5969 25.2963 39.3752L20.6988 36.9382C22.369 36.2947 23.7679 34.9775 24.625 33.2411C25.3325 31.6647 25.5563 29.838 25.5563 25.0329V14.1457H30.5ZM25.5513 5.65332H30.5063V11.3177H25.5513V5.65332Z" fill="#44B78B"/>
</svg>
