<svg width="40" height="45" viewBox="0 0 40 45" fill="none" xmlns="http://www.w3.org/2000/svg">
<g clip-path="url(#clip0_54_251)">
<path d="M30.625 0H9.375C4.19733 0 0 4.722 0 10.5469V34.4531C0 40.278 4.19733 45 9.375 45H30.625C35.8027 45 40 40.278 40 34.4531V10.5469C40 4.722 35.8027 0 30.625 0Z" fill="#242938"/>
<path d="M35.625 32.1569C35.1701 32.3507 34.6679 32.3503 34.2133 32.1558C33.7587 31.9613 33.3831 31.5862 33.1577 31.1013C31.7416 28.7165 30.1778 26.4393 28.6748 24.1132L28.0231 23.1358C26.2334 25.8334 24.4438 28.4233 22.8105 31.1112C22.5977 31.5746 22.2425 31.9352 21.811 32.1258C21.3794 32.3164 20.901 32.324 20.4648 32.1472L27.1805 22.0119L20.9339 12.8537C21.3836 12.671 21.8755 12.6685 22.3266 12.8465C22.7777 13.0246 23.1604 13.3723 23.41 13.831C24.8608 16.216 26.4681 18.4933 28.0666 20.9074C29.6739 18.5128 31.2637 16.2257 32.7494 13.8604C32.9633 13.4045 33.3187 13.053 33.748 12.8728C34.1774 12.6926 34.6506 12.6962 35.0777 12.883L32.6537 16.4994C31.5678 18.112 30.4992 19.7344 29.3698 21.308C29.2788 21.3997 29.2059 21.5119 29.1561 21.6374C29.1062 21.7629 29.0804 21.8988 29.0804 22.0362C29.0804 22.1737 29.1062 22.3096 29.1561 22.435C29.2059 22.5605 29.2788 22.6727 29.3698 22.7644C31.4462 25.8627 33.5052 28.9707 35.625 32.1569ZM4.375 21.8848C4.5575 20.9074 4.67031 19.842 4.92234 18.8452C6.42531 12.8343 12.5502 10.3321 16.7638 14.056C19.2311 16.2357 19.848 19.3242 19.7264 22.8036H5.82594C5.6 29.0197 9.58766 32.7728 14.6873 30.8572C15.5146 30.5242 16.2551 29.9648 16.8421 29.2293C17.4291 28.4939 17.844 27.6056 18.0495 26.6446C18.3189 25.6672 18.7533 25.5011 19.5786 25.7845C19.4427 26.9744 19.0688 28.1141 18.4849 29.118C17.9011 30.1218 17.1225 30.9637 16.2078 31.5803C14.6965 32.5102 12.9625 32.8786 11.2539 32.6328C9.54525 32.3871 7.94944 31.5398 6.69469 30.2121C5.45333 28.6419 4.70275 26.6578 4.5575 24.5628C4.5575 24.2306 4.44453 23.8982 4.38375 23.5855C4.378 23.0186 4.37508 22.4517 4.375 21.8848ZM5.84328 21.4645H18.4145C18.3362 16.9589 15.8081 13.7628 12.4373 13.7336C8.68422 13.6749 5.99969 16.8024 5.83453 21.445L5.84328 21.4645Z" fill="white"/>
</g>
<defs>
<clipPath id="clip0_54_251">
<rect width="40" height="45" fill="white"/>
</clipPath>
</defs>
</svg>
