<svg width="40" height="45" viewBox="0 0 40 45" fill="none" xmlns="http://www.w3.org/2000/svg">
<g clip-path="url(#clip0_20_220)">
<path d="M10.0007 45C15.5204 45 20.0001 41.64 20.0001 37.5V30H10.0007C4.48105 30 0.00133514 33.36 0.00133514 37.5C0.00133514 41.64 4.48105 45 10.0007 45Z" fill="#0ACF83"/>
<path d="M0.00133514 22.5C0.00133514 18.36 4.48105 15 10.0007 15H20.0001V30H10.0007C4.48105 30 0.00133514 26.64 0.00133514 22.5Z" fill="#A259FF"/>
<path d="M0.00133514 7.5C0.00133514 3.36 4.48105 0 10.0007 0H20.0001V15H10.0007C4.48105 15 0.00133514 11.64 0.00133514 7.5Z" fill="#F24E1E"/>
<path d="M20 0H29.9994C35.519 0 39.9987 3.36 39.9987 7.5C39.9987 11.64 35.519 15 29.9994 15H20V0Z" fill="#FF7262"/>
<path d="M39.9987 22.5C39.9987 26.64 35.519 30 29.9994 30C24.4797 30 20 26.64 20 22.5C20 18.36 24.4797 15 29.9994 15C35.519 15 39.9987 18.36 39.9987 22.5Z" fill="#1ABCFE"/>
</g>
<defs>
<clipPath id="clip0_20_220">
<rect width="40" height="45" fill="white"/>
</clipPath>
</defs>
</svg>
