<svg width="40" height="45" viewBox="0 0 40 45" fill="none" xmlns="http://www.w3.org/2000/svg">
<path d="M4.33333 19.8562L13.9667 8.99998L16.7833 12.1875C16.3833 13.7812 17.0333 15.525 18.3333 16.3687V26.7562C17.3333 27.3937 16.6667 28.6125 16.6667 30C16.6667 30.9945 17.0178 31.9484 17.643 32.6516C18.2681 33.3549 19.1159 33.75 20 33.75C20.884 33.75 21.7319 33.3549 22.357 32.6516C22.9821 31.9484 23.3333 30.9945 23.3333 30C23.3333 28.6125 22.6667 27.3937 21.6667 26.7562V17.6437L25.1167 21.5625C25 21.8437 25 22.1625 25 22.5C25 23.4945 25.3512 24.4484 25.9763 25.1516C26.6014 25.8549 27.4493 26.25 28.3333 26.25C29.2174 26.25 30.0652 25.8549 30.6903 25.1516C31.3155 24.4484 31.6667 23.4945 31.6667 22.5C31.6667 21.5054 31.3155 20.5516 30.6903 19.8483C30.0652 19.1451 29.2174 18.75 28.3333 18.75C28.0333 18.75 27.75 18.75 27.5 18.8812L23.2167 14.0625C23.4236 13.194 23.3434 12.2706 22.9909 11.4637C22.6384 10.6568 22.0376 10.0212 21.3 9.67498C20.5833 9.37498 19.8333 9.29998 19.1667 9.50623L16.3333 6.33748L17.65 4.87498C18.95 3.39373 21.05 3.39373 22.35 4.87498L35.6667 19.8562C36.9833 21.3187 36.9833 23.6812 35.6667 25.1437L22.35 40.125C21.05 41.6062 18.95 41.6062 17.65 40.125L4.33333 25.1437C3.01666 23.6812 3.01666 21.3187 4.33333 19.8562Z" fill="#E44F26"/>
</svg>
