<svg width="62" height="62" viewBox="0 0 62 62" fill="none" xmlns="http://www.w3.org/2000/svg">
<path fill-rule="evenodd" clip-rule="evenodd" d="M31 3.87504C24.5603 3.87591 18.331 6.16784 13.4263 10.3409C8.52163 14.5139 5.26161 20.2957 4.22939 26.6522C3.19717 33.0086 4.46009 39.5249 7.79223 45.0355C11.1244 50.5461 16.3084 54.6915 22.4169 56.73C23.7731 56.9819 24.3544 56.1488 24.3544 55.4319V50.8207C16.8175 52.4482 15.2288 47.1782 15.2288 47.1782C14.6988 45.5174 13.5833 44.1058 12.09 43.2063C9.62938 41.54 12.2838 41.5594 12.2838 41.5594C13.1432 41.6808 13.9636 41.9971 14.6822 42.484C15.4008 42.9709 15.9986 43.6156 16.43 44.3688C17.1805 45.7148 18.4348 46.7077 19.9172 47.1292C21.3996 47.5507 22.9886 47.3662 24.335 46.6163C24.4444 45.2416 25.0505 43.9537 26.04 42.9932C20.0338 42.2957 13.6981 39.9707 13.6981 29.5857C13.6542 26.8885 14.6538 24.2785 16.4881 22.3007C15.6578 19.9644 15.7549 17.3987 16.7594 15.1319C16.7594 15.1319 19.0263 14.3957 24.2188 17.9025C28.6585 16.6915 33.3415 16.6915 37.7813 17.9025C42.9544 14.3957 45.2213 15.1319 45.2213 15.1319C46.2257 17.3987 46.3228 19.9644 45.4925 22.3007C47.3269 24.2785 48.3264 26.8885 48.2825 29.5857C48.2825 40.0094 41.9469 42.2957 35.9019 42.9738C36.5494 43.6301 37.0488 44.4177 37.3663 45.2833C37.6838 46.1489 37.8121 47.0725 37.7425 47.9919V55.4319C37.7425 56.3232 38.2269 57.0013 39.68 56.73C45.7966 54.6889 50.9859 50.5356 54.3175 45.0149C57.6492 39.4941 58.9051 32.9671 57.8602 26.6042C56.8153 20.2413 53.5378 14.4588 48.6155 10.2935C43.6932 6.12828 37.4481 3.85276 31 3.87504Z" fill="black"/>
</svg>
