<svg width="40" height="45" viewBox="0 0 40 45" fill="none" xmlns="http://www.w3.org/2000/svg">
<path d="M7.37751 38.2514L4.56876 2.8125H35.4313L32.6188 38.2458L19.9813 42.1875L7.37751 38.2514Z" fill="#E44F26"/>
<path d="M20 39.1753L30.2125 35.9901L32.615 5.71075H20V39.1753Z" fill="#F1662A"/>
<path d="M20 18.8536H14.8875L14.535 14.4028H20V10.0561H10.3125L10.405 11.2233L11.3538 23.2003H20V18.8536ZM20 30.1416L19.9825 30.1472L15.68 28.8408L15.405 25.3744H11.5262L12.0675 32.1975L19.9825 34.6697L20 34.6641V30.1416Z" fill="#EBEBEB"/>
<path d="M19.9862 18.8536V23.2003H24.7437L24.2962 28.838L19.9862 30.1458V34.6683L27.9075 32.1975L27.965 31.4634L28.8725 20.0208L28.9675 18.8536H19.9862ZM19.9862 10.0561V14.4028H29.3187L29.3962 13.4269L29.5725 11.2233L29.665 10.0561H19.9862Z" fill="white"/>
</svg>
