<svg width="40" height="45" viewBox="0 0 40 45" fill="none" xmlns="http://www.w3.org/2000/svg">
<g clip-path="url(#clip0_20_507)">
<path d="M12.8266 44.2651C11.8976 44.2651 11.0204 43.7877 10.4269 42.922L1.39584 29.938C0.80231 29.0723 0.570148 27.9681 0.80231 26.8933L4.02773 10.6857C4.23411 9.61116 4.85342 8.7455 5.70504 8.26803L18.7615 1.04454C19.1745 0.805981 19.6389 0.686523 20.1034 0.686523C20.5679 0.686523 21.0322 0.805801 21.4452 1.04472L34.5018 8.23821C35.3533 8.71568 35.9726 9.58134 36.179 10.6559L39.4044 26.8635C39.6109 27.9381 39.4044 29.0425 38.811 29.9082L29.7797 42.8922C29.1862 43.7279 28.3089 44.2353 27.38 44.2353L12.8269 44.2651H12.8266Z" fill="#326DE6"/>
<path d="M20.0773 1.43274C20.4387 1.43274 20.7999 1.52219 21.1353 1.70129L34.192 8.89478C34.8629 9.2828 35.3789 9.99918 35.5337 10.835L38.7591 27.0426C38.9398 27.9083 38.7591 28.8038 38.2689 29.4901L29.2377 42.4744C28.7732 43.1607 28.0507 43.5488 27.3025 43.5488H12.8266C12.0782 43.5488 11.3558 43.1607 10.8913 42.4744L1.86016 29.4901C1.39568 28.8038 1.21492 27.9083 1.3699 27.0426L4.59532 10.835C4.77593 9.96936 5.26618 9.25298 5.93705 8.89478L18.9939 1.67165C19.3293 1.52238 19.7163 1.43292 20.0775 1.43292L20.0773 1.43274ZM20.0773 0.0297852C19.5355 0.0297852 18.9937 0.179062 18.4775 0.447616L5.42101 7.67111C4.38878 8.23822 3.66636 9.2828 3.40827 10.5663L0.182848 26.7741C-0.0750922 28.0576 0.182848 29.3709 0.905423 30.4156L9.9366 43.3997C10.6334 44.4144 11.6912 44.9815 12.8008 44.9815H27.2765C28.3861 44.9815 29.4441 44.4144 30.1407 43.3997L39.1721 30.4154C39.8945 29.4007 40.1526 28.0576 39.8945 26.7739L36.6691 10.5663C36.4111 9.2828 35.6886 8.23822 34.6565 7.67111L21.6514 0.447436C21.1611 0.179062 20.6193 0.0297852 20.0773 0.0297852Z" fill="white"/>
<path d="M33.1598 25.759C33.134 25.759 33.134 25.759 33.1598 25.759H33.134C33.1082 25.759 33.0824 25.759 33.0824 25.7292C33.0309 25.7292 32.9793 25.6994 32.9276 25.6994C32.747 25.6696 32.5922 25.6397 32.4374 25.6397C32.3599 25.6397 32.2825 25.6397 32.1793 25.6097H32.1535C31.6117 25.5501 31.173 25.4905 30.76 25.3412C30.5794 25.2516 30.5279 25.1323 30.4762 25.0128C30.4762 24.983 30.4504 24.983 30.4504 24.9532L30.115 24.8339C30.2734 23.4298 30.2123 22.0041 29.9344 20.625C29.6526 19.2345 29.1636 17.9114 28.4894 16.7149L28.7475 16.4464V16.3867C28.7475 16.2375 28.7732 16.0882 28.8763 15.9389C29.186 15.6105 29.5731 15.342 30.0376 15.0136C30.115 14.954 30.1923 14.9241 30.2698 14.8643C30.4246 14.7749 30.5537 14.6854 30.7085 14.5659C30.7343 14.5361 30.7858 14.5063 30.8375 14.4467C30.8633 14.4167 30.8891 14.4167 30.8891 14.3869C31.2503 14.0287 31.3278 13.4317 31.0697 13.0435C30.9406 12.8346 30.7085 12.7153 30.4762 12.7153C30.2699 12.7153 30.0892 12.8048 29.9086 12.9541L29.857 13.0137C29.8055 13.0435 29.7795 13.1034 29.728 13.1332C29.5989 13.2825 29.4957 13.4017 29.3925 13.551C29.341 13.6106 29.2894 13.7003 29.2119 13.7599C28.8506 14.2078 28.5151 14.5659 28.1797 14.8345C28.1024 14.8941 28.025 14.9241 27.9475 14.9241C27.896 14.9241 27.8443 14.9241 27.7927 14.8941H27.7412L27.4314 15.1331C27.0959 14.7152 26.7347 14.357 26.3735 13.9988C24.8181 12.5925 22.9462 11.7325 20.9805 11.5213L20.9547 11.1333L20.9032 11.0737C20.8257 10.984 20.7226 10.8946 20.6966 10.6856C20.6709 10.208 20.7226 9.67071 20.7741 9.07378V9.04396C20.7741 8.95432 20.7999 8.83505 20.8257 8.74541C20.8515 8.56649 20.8772 8.38721 20.9032 8.1783V7.90974C20.9032 7.37246 20.5418 6.9248 20.1033 6.9248C19.8967 6.9248 19.6903 7.04408 19.5355 7.22318C19.3809 7.40227 19.3034 7.64101 19.3034 7.90974V8.14848C19.3034 8.3574 19.3291 8.53649 19.3807 8.71559C19.4065 8.80523 19.4065 8.89468 19.4323 9.01414V9.04396C19.4838 9.64089 19.5613 10.1782 19.5097 10.6558C19.484 10.8647 19.3807 10.9542 19.3034 11.0438L19.2518 11.1035L19.2259 11.4915C18.7614 11.5511 18.2969 11.6108 17.8324 11.7302C15.8456 12.2377 14.091 13.4019 12.7235 15.0732L12.4654 14.8643H12.4138C12.3623 14.8643 12.3106 14.8941 12.259 14.8941C12.1815 14.8941 12.1042 14.8643 12.0267 14.8047C11.6912 14.5361 11.3558 14.1479 10.9946 13.7003C10.9431 13.6406 10.8915 13.551 10.814 13.4914C10.7107 13.3421 10.6075 13.2226 10.4784 13.0735C10.4526 13.0435 10.4011 13.0139 10.3495 12.9541C10.3237 12.9243 10.298 12.9243 10.298 12.8944C10.1381 12.7417 9.93759 12.6573 9.73022 12.6555C9.4979 12.6555 9.26574 12.775 9.13669 12.9839C8.87859 13.3719 8.95609 13.9688 9.3173 14.327C9.34307 14.327 9.34307 14.357 9.36885 14.357C9.42041 14.3869 9.44634 14.4465 9.4979 14.4763C9.65273 14.5956 9.78177 14.6852 9.9366 14.7749C10.0141 14.8047 10.0914 14.8643 10.1689 14.9241C10.6332 15.2523 11.0204 15.5211 11.33 15.8494C11.4591 15.9985 11.4591 16.1478 11.4591 16.2971V16.3567L11.717 16.6255C11.6655 16.7149 11.6139 16.7747 11.588 16.8642C10.2978 19.2223 9.80755 21.9982 10.143 24.7443L9.80755 24.8635C9.80755 24.8935 9.78177 24.8935 9.78177 24.9232C9.73022 25.0426 9.65273 25.1621 9.4979 25.2516C9.11091 25.4008 8.64643 25.4606 8.10462 25.5203H8.07868C8.00135 25.5203 7.89808 25.5203 7.82074 25.5501C7.66592 25.5501 7.51109 25.5799 7.33049 25.6097C7.27893 25.6097 7.22737 25.6397 7.17566 25.6397C7.14988 25.6397 7.1241 25.6397 7.09817 25.6696C6.63369 25.7888 6.34982 26.2963 6.42731 26.7738C6.5048 27.1918 6.84023 27.4605 7.253 27.4605C7.33049 27.4605 7.38204 27.4605 7.45953 27.4305C7.48531 27.4305 7.51109 27.4305 7.51109 27.4007C7.56265 27.4007 7.6142 27.3709 7.66576 27.3709C7.84652 27.3113 7.97557 27.2516 8.1304 27.162C8.20773 27.1322 8.28507 27.0723 8.36256 27.0427H8.38834C8.87859 26.8336 9.3173 26.6545 9.73022 26.5949H9.78177C9.9366 26.5949 10.0399 26.6843 10.1172 26.7441C10.143 26.7441 10.143 26.774 10.1688 26.774L10.5301 26.7143C11.1494 28.9229 12.3363 30.893 13.9104 32.3258C14.2716 32.654 14.6328 32.9227 15.0199 33.1914L14.8651 33.5793C14.8651 33.6093 14.8909 33.6093 14.8909 33.6389C14.9424 33.7584 14.994 33.9076 14.9424 34.1166C14.7878 34.5644 14.5555 35.012 14.2716 35.5195V35.5493C14.22 35.639 14.1685 35.6986 14.1169 35.7881C14.0136 35.9373 13.9362 36.0866 13.8329 36.2657C13.8071 36.2955 13.7813 36.3552 13.7555 36.415C13.7555 36.4448 13.7298 36.4746 13.7298 36.4746C13.5234 36.9821 13.6782 37.5492 14.0652 37.7581C14.1683 37.8178 14.2716 37.8478 14.3749 37.8478C14.6845 37.8478 14.9942 37.6088 15.149 37.2805C15.149 37.2506 15.1748 37.2208 15.1748 37.2208C15.2005 37.1612 15.2263 37.1016 15.2521 37.0716C15.3296 36.8626 15.3554 36.7134 15.4069 36.5343L15.4844 36.2657C15.665 35.6688 15.7941 35.1911 16.0262 34.7733C16.1293 34.5942 16.2585 34.5644 16.3617 34.5046C16.3874 34.5046 16.3874 34.5046 16.4132 34.4747L16.594 34.0867C17.7293 34.5942 18.9679 34.8628 20.2064 34.8628C20.9547 34.8628 21.7289 34.7733 22.4514 34.5644C22.9061 34.4468 23.3542 34.2972 23.7932 34.1166L23.9478 34.4449C23.9738 34.4449 23.9738 34.4449 23.9996 34.4747C24.1286 34.5046 24.2317 34.5644 24.335 34.7435C24.5414 35.1613 24.6962 35.6688 24.8768 36.2359V36.2657L24.9543 36.5343C25.0058 36.7134 25.0316 36.8925 25.109 37.0716C25.1349 37.1312 25.1607 37.1612 25.1865 37.2208C25.1865 37.2507 25.2124 37.2805 25.2124 37.2805C25.3671 37.6387 25.6767 37.8478 25.9864 37.8478C26.0896 37.8478 26.1929 37.8178 26.296 37.7581C26.4766 37.6388 26.6314 37.4596 26.6832 37.2208C26.7347 36.9821 26.7347 36.7134 26.6316 36.4746C26.6316 36.4448 26.6057 36.4448 26.6057 36.415C26.5799 36.3553 26.5541 36.2957 26.5283 36.2657C26.4508 36.0866 26.3477 35.9373 26.2445 35.7881C26.1929 35.6986 26.1413 35.639 26.0898 35.5495V35.5195C25.8058 35.012 25.5477 34.5644 25.4188 34.1166C25.3672 33.9076 25.4188 33.7884 25.4445 33.6391C25.4445 33.6093 25.4703 33.6093 25.4703 33.5794L25.3413 33.2213C26.7089 32.2959 27.8701 30.9825 28.7475 29.3708C29.2119 28.5349 29.5731 27.6096 29.8311 26.6843L30.1407 26.744C30.1667 26.744 30.1667 26.7141 30.1923 26.7141C30.2956 26.6545 30.3731 26.565 30.5279 26.565H30.5794C30.9924 26.6247 31.4309 26.8036 31.9213 27.0127H31.9471C32.0244 27.0425 32.1018 27.1022 32.1793 27.132C32.3341 27.2216 32.4631 27.2813 32.6437 27.3411C32.6953 27.3411 32.7469 27.3709 32.7986 27.3709C32.8243 27.3709 32.8501 27.3709 32.8759 27.4007C32.9534 27.4305 33.0049 27.4305 33.0824 27.4305C33.4694 27.4305 33.8049 27.1322 33.9081 26.7441C33.9081 26.386 33.6243 25.9083 33.1598 25.7592V25.759ZM21.2127 24.2964L20.0773 24.9234L18.942 24.2964L18.6583 22.8937L19.4323 21.7594H20.6966L21.4708 22.8937L21.2128 24.2964H21.2127ZM27.9475 21.1923C28.1477 22.1793 28.2087 23.1973 28.1282 24.2068L24.1802 22.8937C23.8189 22.7744 23.6126 22.3564 23.6899 21.9385C23.7157 21.8191 23.7674 21.6996 23.8447 21.6102L26.967 18.3566C27.4056 19.1925 27.741 20.1478 27.9475 21.1923ZM25.7284 16.5658L22.3482 19.3417C22.0643 19.5506 21.6772 19.4908 21.445 19.1626C21.3677 19.073 21.3419 18.9535 21.3159 18.8343L21.0838 13.9688C22.8411 14.2029 24.4782 15.1183 25.7284 16.5658ZM18.2454 14.1179C18.5292 14.0583 18.7872 13.9987 19.071 13.939L18.8389 18.7146C18.8131 19.1325 18.5292 19.4906 18.1421 19.4906C18.039 19.4906 17.9099 19.4608 17.8324 19.4012L14.4006 16.5658C15.4586 15.342 16.7746 14.506 18.2454 14.1179ZM13.162 18.3564L16.2326 21.5203C16.5165 21.7891 16.5423 22.2964 16.3101 22.6247C16.2326 22.744 16.1295 22.8337 16.0005 22.8637L12.0009 24.2068C11.8461 22.1771 12.2331 20.1176 13.162 18.3564ZM12.4652 26.4454L16.5682 25.6394C16.9036 25.6096 17.2133 25.8783 17.2906 26.2663C17.3164 26.4452 17.3164 26.5947 17.2648 26.744L15.6908 31.1316C14.2458 30.057 13.0845 28.4153 12.4652 26.4454ZM21.8837 32.3852C21.2902 32.5345 20.6966 32.624 20.0773 32.624C19.1743 32.624 18.2969 32.445 17.4714 32.1465L19.5097 27.8782C19.7161 27.6094 20.0516 27.4902 20.3354 27.6693C20.4559 27.7546 20.561 27.8661 20.6451 27.9975L22.6319 32.1465C22.3997 32.236 22.1416 32.2958 21.8835 32.3852H21.8837ZM26.9153 28.2364C26.2702 29.4302 25.4186 30.3853 24.4383 31.1316L22.8127 26.6243C22.7352 26.2663 22.8642 25.8783 23.1739 25.699C23.277 25.6394 23.406 25.6096 23.5351 25.6096L27.6637 26.4156C27.5088 27.0722 27.2507 27.6693 26.9153 28.2364Z" fill="white"/>
</g>
<defs>
<clipPath id="clip0_20_507">
<rect width="40" height="45" fill="white"/>
</clipPath>
</defs>
</svg>
