<svg width="40" height="45" viewBox="0 0 40 45" fill="none" xmlns="http://www.w3.org/2000/svg">
<path d="M16.75 15.1875L16.8333 17.3438L15.5 20.1563L13.4167 24.75L13 28.5938L14.5 34.0312L17.9167 36.1875H23.0833L27.9167 32.0625L30.0833 25.5938L25.0833 18.75L23.6667 14.9062L16.75 15.1875Z" fill="#ECEFF1"/>
<path d="M28.5833 20.5314C27.25 18.3751 26.1667 17.0626 25.5833 14.3439C25 11.6251 25.75 12.3751 25.25 10.0314C25 8.81261 24.5833 7.96886 24.1667 7.31261C23.6667 6.65636 23.0833 6.28136 22.75 6.18761C22 5.71886 20.25 4.96886 18.0833 6.28136C15.8333 7.59386 16.0833 10.4064 16.5 16.1251C16.5 16.5001 16.4167 16.9689 16.25 17.3439C15.9167 18.1876 15.3333 18.9376 14.8333 19.5939C14.25 20.5314 13.6667 21.4689 13.25 22.5001C12.25 24.6564 11.3333 27.3751 11.5833 28.4064C12 28.3126 17.25 37.3126 17.25 37.5001C17.5833 37.4064 19 37.4064 20.25 37.4064C22 37.3126 23 37.2189 24.4167 37.5939C24.4167 37.3126 24.3333 37.0314 24.3333 36.7501C24.3333 36.1876 24.4167 35.7189 24.5 35.0626C24.5833 34.5939 24.6667 34.1251 24.75 33.5626C23.9167 34.4064 22.4167 35.3439 21 35.6251C19.75 35.9064 17.6667 35.4376 16.6667 34.0314C16.75 34.0314 16.9167 34.0314 17 33.9376C17.25 33.8439 17.5 33.7501 17.5833 33.5626C17.8333 33.0939 17.6667 32.6251 17.5 32.3439C17.3333 32.0626 16.0833 31.0314 15.5 30.4689C14.9167 29.9064 14.5833 29.6251 14.25 29.2501L13.5833 28.5001C13.4167 28.3126 13.3333 28.1251 13.25 28.0314C13.0833 27.5626 13 27.0001 13.0833 26.2501C13.1667 25.2189 13.5 24.3751 13.9167 23.4376C14.0833 23.0626 14.5 22.3126 14.5 22.3126C14.5 22.3126 13.0833 26.2501 13.8333 27.4689C13.8333 27.4689 13.9167 26.2501 14.25 25.0314C14.5 24.1876 14.9167 22.9689 15.4167 22.3126C15.9167 21.6564 17.1667 19.2189 17.25 17.7189C17.25 17.0626 17.3333 16.4064 17.3333 15.9376C17 15.5626 22.8333 14.6251 23.1667 15.6564C23.25 16.0314 24.4167 19.4064 25.0833 21.1876C25.4167 22.0314 25.8333 22.7814 26.0833 23.7189C26.3333 24.7501 26.5 26.1564 26.5 27.5626C26.5 27.8439 26.5 28.3126 26.4167 28.7814C26.5833 28.7814 29.8333 24.8439 26 21.5626C26 21.5626 28.3333 22.7814 28.4167 25.2189C28.5 27.1876 27.75 28.7814 27.5833 29.0626C27.6667 29.0626 29.3333 29.9064 29.4167 29.9064C29.75 29.9064 30.4167 29.6251 30.4167 29.6251C30.5 29.3439 30.75 28.5939 30.75 28.3126C31.3333 26.1564 29.9167 22.6876 28.5833 20.5314Z" fill="#263238"/>
<path d="M18 14.3437C18.5983 14.3437 19.0833 13.5043 19.0833 12.4688C19.0833 11.4332 18.5983 10.5938 18 10.5938C17.4017 10.5938 16.9167 11.4332 16.9167 12.4688C16.9167 13.5043 17.4017 14.3437 18 14.3437Z" fill="#ECEFF1"/>
<path d="M21.75 14.5313C22.5324 14.5313 23.1666 13.5659 23.1666 12.375C23.1666 11.1841 22.5324 10.2188 21.75 10.2188C20.9676 10.2188 20.3333 11.1841 20.3333 12.375C20.3333 13.5659 20.9676 14.5313 21.75 14.5313Z" fill="#ECEFF1"/>
<path d="M18.6058 12.5972C18.5365 11.9808 18.2212 11.5179 17.9016 11.5634C17.582 11.6088 17.379 12.1454 17.4483 12.7618C17.5176 13.3782 17.8328 13.8411 18.1524 13.7956C18.4721 13.7502 18.675 13.2136 18.6058 12.5972Z" fill="#212121"/>
<path d="M21.6667 13.9687C22.1269 13.9687 22.5 13.4231 22.5 12.75C22.5 12.0769 22.1269 11.5312 21.6667 11.5312C21.2064 11.5312 20.8333 12.0769 20.8333 12.75C20.8333 13.4231 21.2064 13.9687 21.6667 13.9687Z" fill="#212121"/>
<path d="M32.75 33.375C32.4167 33.1875 31.8333 32.9063 31.3333 32.0625C31.0833 31.5938 31.1667 30.2813 30.75 29.7188C30.5 29.3438 30.1667 29.5313 30.0833 29.5313C29.3333 29.7188 27.5833 31.0313 26.4167 29.5313C26.25 29.3438 26 29.0625 25.5833 29.0625C25.1667 29.0625 25 29.25 24.8333 29.625C24.6667 30 24.6667 30.2812 24.6667 31.2188C24.6667 31.9688 24.6667 32.8125 24.5833 33.4688C24.4167 35.0625 24.1667 36 24.1667 36.9375C24.1667 37.9688 24.4167 38.625 24.75 38.9063C25 39.1875 25.4167 39.375 26.3333 39.375C27.25 39.375 27.8333 39 28.4167 38.3438C28.8333 37.875 29.1667 37.6875 30.3333 36.75C31.25 36.0938 32.6667 35.25 32.9167 34.9688C33.0833 34.7812 33.3333 34.6875 33.3333 34.125C33.3333 33.6563 33 33.4688 32.75 33.375ZM16 33.6563C15.1667 32.1563 15.0833 31.875 14.5 30.9375C14 30 12.9167 28.2188 12.25 28.2188C11.75 28.2188 11.5 28.5 11.1667 28.875C10.8333 29.25 10.5 30.0938 9.91667 30.5625C9.41667 31.0312 8 30.9375 7.66667 31.5C7.33334 32.0625 8 32.9062 8 34.3125C8 34.875 7.58334 35.25 7.5 35.625C7.41667 36.0938 7.33334 36.375 7.5 36.75C7.83334 37.3125 8.25 37.5 11.0833 38.1563C12.5833 38.5313 14 39.4688 14.9167 39.5625C15.8333 39.6563 17.4167 39.5625 17.4167 37.0313C17.5 35.5313 16.75 35.1563 16 33.6563ZM17.5833 16.6875C17.0833 16.3125 16.6667 15.9375 16.6667 15.375C16.6667 14.8125 17 14.625 17.5 14.1563C17.5833 14.0625 18.5 13.125 19.4167 13.125C20.3333 13.125 21.4167 13.7812 21.8333 13.9687C22.5833 14.1562 23.3333 14.3438 23.25 15C23.1667 15.9375 23.0833 16.125 22.25 16.5938C21.6667 16.7813 20.5833 17.8125 19.8333 17.8125C19.5 17.8125 19 17.8125 18.6667 17.7188C18.4167 17.625 18 17.1562 17.5833 16.6875Z" fill="#FFC107"/>
<path d="M17.4167 15.9375C17.5833 16.125 17.8333 16.3125 18.0833 16.4063C18.25 16.5 18.5 16.5938 18.5 16.5938H19.25C19.6667 16.5938 20.25 16.4063 20.8333 16.0313C21.4167 15.75 21.5 15.5625 21.9167 15.375C22.3333 15.0938 22.75 14.8125 22.5833 14.7188C22.4167 14.625 22.25 14.7188 21.6667 15.0938C21.1667 15.4688 20.75 15.6563 20.25 15.9375C20 16.0313 19.6667 16.2187 19.4167 16.2187H18.6667C18.4167 16.2187 18.25 16.125 18 16.0313C17.8333 15.9375 17.75 15.8438 17.6667 15.8438C17.5 15.75 17.1667 15.375 17 15.2812C17 15.2812 16.8333 15.2812 16.9167 15.375L17.4167 15.9375ZM19.9167 13.875C20 14.0625 20.1667 14.0625 20.25 14.1563C20.3333 14.25 20.4167 14.25 20.4167 14.25C20.5 14.1563 20.4167 13.9687 20.3333 13.9687C20.3333 13.7812 19.9167 13.7813 19.9167 13.875ZM18.5833 14.0625C18.5833 14.1563 18.75 14.25 18.75 14.1563C18.8333 14.0625 18.9167 13.9687 19 13.9687C19.1667 13.875 19.0833 13.7812 18.8333 13.7812C18.6667 13.875 18.6667 13.9688 18.5833 14.0625Z" fill="#634703"/>
<path d="M26.6667 30.6561V30.9373C26.8333 31.3123 27.25 31.4061 27.5833 31.4061C28.0833 31.4061 28.5833 31.0311 28.8333 30.6561C28.8333 30.5623 28.9167 30.4686 29 30.3748C29.1667 30.0936 29.25 29.9061 29.3333 29.8123C29.3333 29.8123 29.25 29.7186 29.25 29.6248C29.1667 29.4373 28.9167 29.2498 28.5833 29.1561C28.3333 29.0623 27.9167 28.9686 27.75 28.9686C27 28.8748 26.5833 29.1561 26.3333 29.4373C26.3333 29.4373 26.4167 29.4373 26.4167 29.5311C26.5833 29.7186 26.6667 29.9061 26.6667 30.1873C26.75 30.3748 26.6667 30.4686 26.6667 30.6561Z" fill="#455A64"/>
</svg>
