<svg width="40" height="45" viewBox="0 0 40 45" fill="none" xmlns="http://www.w3.org/2000/svg">
<g clip-path="url(#clip0_54_246)">
<path d="M29.6863 42.1945C29.5375 42.2831 29.55 42.3112 29.6925 42.2297C29.7364 42.2095 29.7767 42.1804 29.8113 42.1439C29.8113 42.1144 29.8113 42.1144 29.6863 42.1945ZM29.9862 42.0117C29.915 42.0778 29.915 42.0778 30 42.0342C30.0314 42.0177 30.0601 41.9953 30.085 41.9681C30.085 41.9301 30.065 41.9386 29.9862 42.0117ZM30.1813 41.8795C30.11 41.9456 30.11 41.9456 30.195 41.902C30.2265 41.8851 30.2553 41.8623 30.28 41.8345C30.28 41.7994 30.26 41.8064 30.1813 41.8795ZM30.3787 41.7487C30.3075 41.8148 30.3075 41.8148 30.39 41.7698C30.4363 41.7417 30.475 41.7122 30.475 41.7037C30.475 41.6686 30.455 41.6756 30.3787 41.7487ZM30.645 41.5505C30.5088 41.6531 30.4613 41.7192 30.5863 41.6461C30.67 41.5884 30.8125 41.4619 30.7875 41.4619C30.7337 41.4844 30.6887 41.5223 30.6437 41.5505H30.645ZM18.6912 0.0154629C18.6 0.0224942 18.3263 0.0506192 18.0863 0.0731192C12.4012 0.652494 7.0825 4.09499 3.71125 9.39796C1.84821 12.3064 0.637198 15.6781 0.18125 19.2262C0.02 20.4637 0 20.8294 0 22.507C0 24.1833 0.02 24.5433 0.18125 25.7808C1.27 34.2337 6.615 41.3297 13.86 43.9594C15.1638 44.4277 16.53 44.7511 18.0863 44.9494C18.6912 45.0225 21.3075 45.0225 21.9125 44.9494C24.6025 44.6119 26.8738 43.8651 29.1213 42.5756C29.4663 42.3787 29.5312 42.3267 29.485 42.2831C28.3886 40.6527 27.3015 39.0144 26.2238 37.3683L23.0275 32.5125L19.0238 25.8398C17.692 23.6057 16.3465 21.3819 14.9875 19.1686C14.9738 19.1686 14.9562 22.1344 14.9487 25.7512C14.935 32.0864 14.935 32.3437 14.8637 32.49C14.7954 32.6667 14.673 32.8099 14.5187 32.8936C14.395 32.9597 14.2838 32.9737 13.6925 32.9737H13.0163L12.84 32.85C12.7296 32.7703 12.6399 32.6592 12.58 32.528L12.495 32.3297L12.5013 23.5111L12.515 14.6925L12.6388 14.5167C12.7178 14.4086 12.8151 14.3193 12.925 14.2537C13.0887 14.1652 13.1538 14.1511 13.83 14.1511C14.6237 14.1511 14.755 14.1862 14.9637 14.4436C16.5857 17.1575 18.1936 19.8819 19.7875 22.6167C22.3862 27.0492 25.9338 33.0975 27.6775 36.0647L30.8488 41.4633L31.005 41.3466C32.5291 40.2072 33.9102 38.8426 35.1113 37.2895C37.6307 34.0454 39.2655 30.0531 39.82 25.7906C39.9813 24.5531 40.0013 24.1861 40.0013 22.5098C40.0013 20.8322 39.9813 20.4736 39.82 19.2361C38.7313 10.7831 33.3862 3.68718 26.1413 1.05609C24.7872 0.573633 23.3936 0.245269 21.9812 0.0759317C21.6025 0.0323379 19.0175 -0.0196933 18.6925 0.0182754L18.6912 0.0154629ZM26.875 13.6237C26.968 13.6751 27.0509 13.7469 27.119 13.8348C27.187 13.9226 27.2388 14.0249 27.2712 14.1356C27.305 14.2537 27.3113 16.6992 27.305 22.2075L27.2913 30.1162L26.055 27.9787L24.8113 25.8398V20.0981C24.8113 16.3758 24.825 14.2889 24.8425 14.1862C24.9037 13.9509 25.044 13.7516 25.2337 13.6308C25.3888 13.5422 25.4487 13.5352 26.0675 13.5352C26.6462 13.5352 26.745 13.5422 26.875 13.6237Z" fill="black"/>
</g>
<defs>
<clipPath id="clip0_54_246">
<rect width="40" height="45" fill="white"/>
</clipPath>
</defs>
</svg>
