<svg width="40" height="45" viewBox="0 0 40 45" fill="none" xmlns="http://www.w3.org/2000/svg">
<path d="M20 42.1875C19.5278 42.1877 19.064 42.048 18.655 41.7825L14.375 38.932C13.7363 38.5299 14.0475 38.3878 14.2588 38.3048C14.9381 38.0687 15.5886 37.738 16.195 37.3205C16.2458 37.2941 16.3017 37.2826 16.3575 37.2873C16.4132 37.292 16.467 37.3126 16.5138 37.3472L19.8025 39.5452C19.8637 39.5816 19.932 39.6007 20.0013 39.6007C20.0705 39.6007 20.1388 39.5816 20.2 39.5452L33.025 31.2173C33.085 31.1769 33.1347 31.1196 33.1691 31.0511C33.2035 30.9825 33.2215 30.9051 33.2213 30.8264V14.168C33.2213 14.088 33.203 14.0094 33.1682 13.9397C33.1334 13.87 33.0832 13.8115 33.0225 13.77L20.1975 5.44922C20.137 5.4109 20.0688 5.39077 19.9994 5.39077C19.93 5.39077 19.8617 5.4109 19.8013 5.44922L6.98376 13.7728C6.92262 13.8135 6.87185 13.8712 6.83637 13.9405C6.8009 14.0097 6.78191 14.0881 6.78126 14.168V30.8194C6.78143 30.8979 6.80016 30.975 6.83552 31.0427C6.87089 31.1104 6.92161 31.1663 6.98251 31.2047L10.5 33.4884C12.4063 34.56 13.5738 33.2972 13.5738 32.0288V15.5883C13.5738 15.4764 13.6133 15.3691 13.6836 15.29C13.7539 15.2109 13.8493 15.1664 13.9488 15.1664H15.5738C15.6732 15.1664 15.7686 15.2109 15.8389 15.29C15.9092 15.3691 15.9488 15.4764 15.9488 15.5883V32.0302C15.9488 34.8919 14.5638 36.5302 12.1513 36.5302C11.1105 36.5506 10.086 36.2374 9.19751 35.6273L5.82626 33.4519C5.41699 33.1838 5.0774 32.7995 4.84139 32.3376C4.60538 31.8757 4.4812 31.3522 4.48126 30.8194V14.168C4.48004 13.6343 4.60369 13.1097 4.83979 12.6469C5.07588 12.1841 5.4161 11.7993 5.82626 11.5313L18.6525 3.20063C19.0657 2.94633 19.5291 2.81305 20 2.81305C20.471 2.81305 20.9343 2.94633 21.3475 3.20063L34.1725 11.5313C34.5817 11.7989 34.9214 12.1825 35.1576 12.6439C35.3938 13.1054 35.5184 13.6284 35.5188 14.1609V30.8194C35.5181 31.3522 35.3934 31.8755 35.1572 32.3373C34.9211 32.7991 34.5816 33.1834 34.1725 33.4519L21.3475 41.7825C20.9378 42.0484 20.473 42.1881 20 42.1875Z" fill="#83CD29"/>
<path d="M17.5675 25.2464C17.5675 25.1345 17.607 25.0272 17.6773 24.9481C17.7477 24.869 17.843 24.8245 17.9425 24.8245H19.6012C19.6899 24.8249 19.7755 24.8605 19.843 24.9251C19.9105 24.9897 19.9555 25.0791 19.97 25.1775C20.22 27.0774 20.97 28.035 24.3612 28.035C27.0625 28.035 28.2137 27.3474 28.2137 25.7344C28.2137 24.8049 27.8875 24.1144 23.6887 23.6517C20.1787 23.2608 18.0087 22.3861 18.0087 19.2305C18.0087 16.3195 20.19 14.5828 23.8462 14.5828C27.955 14.5828 29.9887 16.1874 30.2462 19.6299C30.2502 19.6873 30.2436 19.7451 30.2269 19.7996C30.2102 19.8541 30.1838 19.9042 30.1493 19.9467C30.1147 19.9893 30.0728 20.0235 30.026 20.0471C29.9793 20.0707 29.9287 20.0833 29.8775 20.0841H28.2075C28.1237 20.0828 28.0427 20.0499 27.9775 19.9908C27.9122 19.9316 27.8665 19.8496 27.8475 19.7578C27.4487 17.7595 26.4725 17.1211 23.8475 17.1211C20.8975 17.1211 20.555 18.277 20.555 19.1433C20.555 20.1924 20.96 20.4989 24.9425 21.091C28.8837 21.6774 30.7562 22.507 30.7562 25.6233C30.7562 28.7677 28.4262 30.5677 24.3625 30.5677C18.7437 30.5761 17.5675 27.6778 17.5675 25.2464Z" fill="#83CD29"/>
</svg>
