<svg width="40" height="40" viewBox="0 0 40 40" fill="none" xmlns="http://www.w3.org/2000/svg">
<path d="M6.75 35C6.25 35 5.83333 34.8333 5.5 34.5C5.16667 34.1667 5 33.75 5 33.25V26.5C5 26.1111 5.125 25.7706 5.375 25.4783C5.625 25.1861 5.94444 24.9989 6.33333 24.9167L12.0833 23.75C12.4722 23.6944 12.8683 23.7294 13.2717 23.855C13.675 23.9806 14.0011 24.1678 14.25 24.4167L18.1667 28.3333C20.2778 27.0556 22.2083 25.5417 23.9583 23.7917C25.7083 22.0417 27.1667 20.1667 28.3333 18.1667L24.3333 14.0833C24.0833 13.8333 23.9233 13.5483 23.8533 13.2283C23.7833 12.9083 23.7767 12.5544 23.8333 12.1667L24.9167 6.33333C24.9722 5.94444 25.1528 5.625 25.4583 5.375C25.7639 5.125 26.1111 5 26.5 5H33.25C33.75 5 34.1667 5.16667 34.5 5.5C34.8333 5.83333 35 6.25 35 6.75C35 10.3333 34.2011 13.8267 32.6033 17.23C31.0056 20.6333 28.8944 23.6472 26.27 26.2717C23.6456 28.8961 20.6317 31.0072 17.2283 32.605C13.825 34.2028 10.3322 35.0011 6.75 35Z" fill="black"/>
</svg>
