<svg width="50" height="45" viewBox="0 0 50 45" fill="none" xmlns="http://www.w3.org/2000/svg">
<path d="M40 29.25C36.75 29.25 34 31.05 33 33.75H22.5C22.5 32.175 22 30.825 21.25 29.7L39 13.275C39.75 13.275 40.5 13.5 41.25 13.5C44.75 13.5 47.5 11.025 47.5 7.875C47.5 4.725 44.75 2.25 41.25 2.25C37.75 2.25 35 4.725 35 7.875C35 8.55 35.25 9.45 35.5 10.125L18 26.325C16.5 25.2 14.5 24.75 12.5 24.75V15.3C15.5 14.4 17.5 11.925 17.5 9C17.5 5.175 14.25 2.25 10 2.25C5.75 2.25 2.5 5.175 2.5 9C2.5 11.925 4.5 14.4 7.5 15.3V25.875C4.5 27.45 2.5 30.375 2.5 33.525C2.5 38.475 7 42.525 12.5 42.525C16.25 42.525 19.5 40.725 21 38.025H32.75C33.75 40.5 36.5 42.525 39.75 42.525C43.75 42.525 47.25 39.6 47.25 35.775C47.5 32.175 44 29.25 40 29.25Z" fill="black"/>
</svg>
