<svg width="60" height="60" viewBox="0 0 60 60" fill="none" xmlns="http://www.w3.org/2000/svg">
<g clip-path="url(#clip0_55_18)">
<path d="M1.28127 29.641C1.27986 34.6821 2.60732 39.6045 5.13146 43.9431L1.03987 58.7668L16.3282 54.7891C20.5567 57.0733 25.2945 58.2702 30.109 58.2705H30.1216C46.0153 58.2705 58.9531 45.4373 58.9599 29.6635C58.9629 22.0201 55.9658 14.8326 50.5205 9.42517C45.0762 4.01819 37.8354 1.03889 30.1205 1.0354C14.2249 1.0354 1.28807 13.868 1.2815 29.641" fill="url(#paint0_linear_55_18)"/>
<path d="M0.25154 29.6316C0.2499 34.8542 1.62494 39.9526 4.23907 44.4465L0.000766754 59.8016L15.8372 55.6814C20.2007 58.0421 25.1135 59.2867 30.1126 59.2886H30.1255C46.5893 59.2886 59.9919 45.9937 59.9989 29.6553C60.0017 21.7372 56.8968 14.2914 51.257 8.69023C45.6165 3.08977 38.1167 0.00325581 30.1255 0C13.6588 0 0.258103 13.293 0.25154 29.6316ZM9.6825 43.6726L9.09119 42.7412C6.60549 38.8193 5.2935 34.2872 5.29537 29.6335C5.30076 16.0533 16.4389 5.00465 30.1348 5.00465C36.7675 5.00744 43.0007 7.57302 47.689 12.2279C52.3771 16.8833 54.9567 23.0716 54.9551 29.6535C54.949 43.2337 43.8107 54.2837 30.1255 54.2837H30.1156C25.6596 54.2814 21.2893 53.094 17.478 50.85L16.571 50.3163L7.17336 52.7612L9.6825 43.6723V43.6726Z" fill="url(#paint1_linear_55_18)"/>
<path d="M22.6591 17.2438C22.0999 16.0105 21.5114 15.9856 20.9797 15.964C20.5442 15.9454 20.0464 15.9468 19.5491 15.9468C19.0513 15.9468 18.2425 16.1326 17.5588 16.8733C16.8745 17.6147 14.9461 19.4063 14.9461 23.0503C14.9461 26.6945 17.6209 30.2161 17.9938 30.7108C18.3672 31.2045 23.1576 38.9217 30.7446 41.8905C37.05 44.3577 38.3332 43.867 39.7017 43.7433C41.0704 43.6201 44.1181 41.9522 44.7399 40.2226C45.3621 38.4933 45.3621 37.011 45.1756 36.7012C44.989 36.3926 44.4912 36.2073 43.7447 35.837C42.998 35.4666 39.3283 33.6747 38.6442 33.4275C37.9598 33.1805 37.4623 33.0573 36.9645 33.7989C36.4667 34.5394 35.0373 36.2073 34.6016 36.7012C34.1664 37.1963 33.7307 37.258 32.9844 36.8875C32.2375 36.5159 29.8336 35.7347 26.9816 33.2117C24.7626 31.2484 23.2645 28.824 22.829 28.0824C22.3936 27.3419 22.7824 26.9405 23.1567 26.5715C23.4921 26.2396 23.9034 25.7066 24.277 25.2742C24.6491 24.8417 24.7734 24.5331 25.0223 24.0391C25.2714 23.5447 25.1467 23.1122 24.9604 22.7417C24.7734 22.3712 23.3229 18.7082 22.6591 17.2438Z" fill="white"/>
</g>
<defs>
<linearGradient id="paint0_linear_55_18" x1="2897.04" y1="5774.18" x2="2897.04" y2="1.0354" gradientUnits="userSpaceOnUse">
<stop stop-color="#1FAF38"/>
<stop offset="1" stop-color="#60D669"/>
</linearGradient>
<linearGradient id="paint1_linear_55_18" x1="2999.91" y1="5980.16" x2="2999.91" y2="0" gradientUnits="userSpaceOnUse">
<stop stop-color="#F9F9F9"/>
<stop offset="1" stop-color="white"/>
</linearGradient>
<clipPath id="clip0_55_18">
<rect width="60" height="60" fill="white"/>
</clipPath>
</defs>
</svg>
