<svg width="50" height="42" viewBox="0 0 50 42" fill="none" xmlns="http://www.w3.org/2000/svg">
<g clip-path="url(#clip0_56_60)">
<path d="M48.9677 16.0047C47.8417 15.0966 45.2615 14.7561 43.2443 15.2101C43.0099 12.9399 41.9308 10.9536 40.0543 9.19414L38.9754 8.28603L38.2246 9.59144C37.2865 11.2941 36.8174 13.6779 36.958 15.9482C37.0049 16.7426 37.2395 18.1615 37.9432 19.4101C37.2865 19.8642 35.926 20.4318 34.1434 20.4318H0.225775L0.132026 20.8858C-0.196487 23.1558 -0.196487 30.2502 3.65035 35.6986C6.55891 39.8417 10.8749 41.9417 16.5512 41.9417C28.8421 41.9417 37.9432 35.0741 42.2123 22.645C43.9011 22.7018 47.5134 22.645 49.3431 18.3883C49.3899 18.2748 49.4837 18.0477 49.812 17.1966L49.9997 16.7426L48.9677 16.0047ZM27.3409 0H22.1808V5.67545H27.3409V0ZM27.3409 6.81058H22.1808V12.486H27.3409V6.81036V6.81058ZM21.2424 6.81058H16.0823V12.486H21.2424V6.81036V6.81058ZM15.1438 6.81058H9.98349V12.486H15.1438V6.81036V6.81058ZM9.04522 13.6212H3.88492V19.2966H9.04502V13.6209L9.04522 13.6212ZM15.1438 13.6212H9.98349V19.2966H15.1438V13.6212ZM21.2424 13.6212H16.0823V19.2966H21.2424V13.6212ZM27.3411 13.6212H22.1806V19.2966H27.3411V13.6212ZM33.4397 13.6212H28.2792V19.2966H33.4397V13.6212Z" fill="#2396ED"/>
</g>
<defs>
<clipPath id="clip0_56_60">
<rect width="50" height="42" fill="white"/>
</clipPath>
</defs>
</svg>
