<svg width="57" height="57" viewBox="0 0 57 57" fill="none" xmlns="http://www.w3.org/2000/svg">
<path d="M48.9844 6.23438H8.01562C7.03037 6.23438 6.23438 7.03037 6.23438 8.01562V48.9844C6.23438 49.9696 7.03037 50.7656 8.01562 50.7656H48.9844C49.9696 50.7656 50.7656 49.9696 50.7656 48.9844V8.01562C50.7656 7.03037 49.9696 6.23438 48.9844 6.23438ZM19.4435 44.1806H12.8361V22.928H19.4435V44.1806ZM16.1426 20.0224C15.3851 20.0224 14.6447 19.7978 14.0149 19.3769C13.3851 18.9561 12.8943 18.358 12.6044 17.6582C12.3145 16.9584 12.2387 16.1884 12.3865 15.4455C12.5342 14.7027 12.899 14.0203 13.4346 13.4847C13.9702 12.9491 14.6526 12.5843 15.3954 12.4366C16.1383 12.2888 16.9084 12.3646 17.6081 12.6545C18.3079 12.9444 18.906 13.4352 19.3268 14.065C19.7477 14.6948 19.9723 15.4352 19.9723 16.1927C19.9667 18.3079 18.2522 20.0224 16.1426 20.0224ZM44.1806 44.1806H37.5788V33.8438C37.5788 31.3778 37.5343 28.2105 34.1443 28.2105C30.7099 28.2105 30.1811 30.8936 30.1811 33.6656V44.1806H23.5849V22.928H29.9194V25.8337H30.0085C30.888 24.1638 33.0422 22.3992 36.2596 22.3992C42.9504 22.3992 44.1806 26.8022 44.1806 32.5245V44.1806Z" fill="black"/>
</svg>
