<svg width="51" height="46" viewBox="0 0 51 46" fill="none" xmlns="http://www.w3.org/2000/svg">
<g clip-path="url(#clip0_55_35)">
<path d="M11.3797 45.7735V22.1991L5.38863 15.5105L0.0162907 11.7988V41.6133C0.0162907 43.9152 1.54458 45.7735 3.42539 45.7735H11.3797Z" fill="#4285F4"/>
<path d="M38.6516 45.7735H46.6059C48.4924 45.7735 50.015 43.9083 50.015 41.6133V11.7991L43.93 16.0504L38.6516 22.1991V45.7735Z" fill="#34A853"/>
<path d="M11.3796 22.1992L10.5644 12.988L11.3796 4.172L25.0156 16.6525L38.6516 4.172L39.5635 12.5121L38.6516 22.1992L25.0156 34.6798L11.3796 22.1992Z" fill="#EA4335"/>
<path d="M38.6516 4.17199V22.1992L50.015 11.7989V6.252C50.015 1.10739 45.2027 -1.82541 41.8336 1.25992L38.6516 4.17199Z" fill="#FBBC04"/>
<path d="M0.0162048 11.7989L5.24245 16.5824L11.3796 22.1992V4.17197L8.19765 1.25991C4.82273 -1.82566 0.0162048 1.10737 0.0162048 6.25175V11.7987V11.7989Z" fill="#C5221F"/>
</g>
<defs>
<clipPath id="clip0_55_35">
<rect width="50" height="46" fill="white" transform="translate(0.015625)"/>
</clipPath>
</defs>
</svg>
