<svg width="40" height="45" viewBox="0 0 40 45" fill="none" xmlns="http://www.w3.org/2000/svg">
<path d="M5.97626 31.9867L20.29 4.0979L21.575 4.93181L7.26251 32.822L5.97626 31.9867Z" fill="#E10098"/>
<path d="M5.68124 29.759H34.3087V31.4283H5.68124V29.759Z" fill="#E10098"/>
<path d="M6.24875 30.6957L6.99 29.25L21.3087 38.551L20.5662 39.9966L6.24875 30.6957ZM18.6875 6.45472L19.43 5.0105L33.7487 14.3114L33.0062 15.7571L18.6875 6.45472Z" fill="#E10098"/>
<path d="M6.2525 14.3073L20.57 5.00635L21.3125 6.45197L6.99375 15.7529L6.2525 14.3073Z" fill="#E10098"/>
<path d="M18.4288 4.93321L19.7138 4.0979L34.0263 31.9881L32.7425 32.822L18.4288 4.93321ZM6.8175 13.1992H8.30125V31.801H6.8175V13.1992Z" fill="#E10098"/>
<path d="M31.7 13.199H33.1837V31.8009H31.7V13.199Z" fill="#E10098"/>
<path d="M19.6675 38.0277L32.12 29.939L32.7687 31.2018L20.315 39.2905L19.6675 38.0277Z" fill="#E10098"/>
<path d="M35.15 32.3437C34.8416 32.9467 34.3811 33.4331 33.8268 33.7415C33.2725 34.0499 32.6493 34.1663 32.0362 34.0761C31.423 33.9859 30.8475 33.693 30.3823 33.2346C29.9172 32.7762 29.5834 32.1729 29.4232 31.501C29.263 30.8291 29.2836 30.1188 29.4823 29.4601C29.6811 28.8014 30.0491 28.2238 30.5398 27.8004C31.0305 27.3771 31.6218 27.127 32.2388 27.0819C32.8559 27.0368 33.471 27.1987 34.0062 27.547C34.7226 28.0132 35.2454 28.78 35.4598 29.6793C35.6742 30.5785 35.5628 31.5368 35.15 32.3437ZM10.25 16.1718C9.94156 16.7748 9.48106 17.2612 8.92677 17.5696C8.37248 17.878 7.74933 17.9944 7.13619 17.9042C6.52305 17.814 5.94748 17.5211 5.48235 17.0628C5.01721 16.6044 4.68341 16.001 4.5232 15.3291C4.36299 14.6572 4.38357 13.947 4.58233 13.2882C4.7811 12.6295 5.14911 12.0519 5.6398 11.6285C6.13048 11.2052 6.72177 10.9552 7.33884 10.91C7.9559 10.8649 8.57098 11.0268 9.10624 11.3751C9.82262 11.8413 10.3454 12.6082 10.5598 13.5074C10.7742 14.4067 10.6628 15.3649 10.25 16.1718ZM4.84999 32.3437C4.54037 31.7415 4.3965 31.0496 4.4366 30.3554C4.4767 29.6612 4.69897 28.996 5.07527 28.444C5.45157 27.8919 5.96498 27.4779 6.55053 27.2543C7.13608 27.0307 7.76743 27.0075 8.36468 27.1878C8.96192 27.368 9.49822 27.7435 9.90567 28.2668C10.3131 28.7901 10.5734 29.4376 10.6536 30.1274C10.7338 30.8172 10.6303 31.5182 10.3562 32.1418C10.0821 32.7654 9.64969 33.2834 9.11374 33.6304C8.39645 34.0948 7.5447 34.2202 6.74536 33.9789C5.94603 33.7377 5.26439 33.1496 4.84999 32.3437ZM29.75 16.1718C29.4404 15.5697 29.2965 14.8777 29.3366 14.1835C29.3767 13.4893 29.599 12.8241 29.9753 12.2721C30.3516 11.7201 30.865 11.306 31.4505 11.0824C32.0361 10.8588 32.6674 10.8357 33.2647 11.0159C33.8619 11.1961 34.3982 11.5717 34.8057 12.095C35.2131 12.6182 35.4734 13.2657 35.5536 13.9555C35.6338 14.6453 35.5303 15.3464 35.2562 15.9699C34.9821 16.5935 34.5497 17.1116 34.0137 17.4586C33.2964 17.923 32.4447 18.0483 31.6454 17.8071C30.846 17.5658 30.1644 16.9778 29.75 16.1718ZM20 42.1875C19.3819 42.1875 18.7777 41.9813 18.2638 41.595C17.7499 41.2087 17.3494 40.6596 17.1129 40.0172C16.8763 39.3748 16.8145 38.6679 16.935 37.986C17.0556 37.304 17.3532 36.6776 17.7903 36.1859C18.2273 35.6942 18.7841 35.3594 19.3903 35.2238C19.9965 35.0881 20.6249 35.1577 21.1959 35.4238C21.7669 35.6899 22.255 36.1405 22.5983 36.7187C22.9417 37.2968 23.125 37.9765 23.125 38.6718C23.1261 39.1339 23.0461 39.5916 22.8895 40.0187C22.7328 40.4459 22.5027 40.8339 22.2123 41.1607C21.9219 41.4874 21.5769 41.7463 21.1972 41.9225C20.8176 42.0987 20.4107 42.1888 20 42.1875ZM20 9.83106C19.3819 9.83106 18.7777 9.62487 18.2638 9.23857C17.7499 8.85226 17.3494 8.3032 17.1129 7.6608C16.8763 7.01841 16.8145 6.31153 16.935 5.62957C17.0556 4.9476 17.3532 4.32118 17.7903 3.82951C18.2273 3.33784 18.7841 3.00301 19.3903 2.86736C19.9965 2.73171 20.6249 2.80133 21.1959 3.06742C21.7669 3.33351 22.255 3.78411 22.5983 4.36225C22.9417 4.9404 23.125 5.62011 23.125 6.31543C23.1261 6.77747 23.0461 7.23522 22.8895 7.66234C22.7328 8.08946 22.5027 8.47754 22.2123 8.80425C21.9219 9.13097 21.5769 9.38987 21.1972 9.56609C20.8176 9.74231 20.4107 9.83236 20 9.83106Z" fill="#E10098"/>
</svg>
