<svg width="40" height="45" viewBox="0 0 40 45" fill="none" xmlns="http://www.w3.org/2000/svg">
<path d="M2.5 2.8125H37.5V42.1875H2.5V2.8125Z" fill="#F5DE19"/>
<path d="M26.0112 33.5743C26.3095 34.2557 26.7728 34.8285 27.3478 35.2266C27.9228 35.6247 28.5861 35.8319 29.2612 35.8243C30.6237 35.8243 31.495 35.0578 31.495 33.9961C31.495 32.7305 30.6 32.2777 29.1 31.5394L28.2775 31.1428C25.9025 30.0052 24.3275 28.5807 24.3275 25.5685C24.3275 22.7939 26.2025 20.6803 29.1437 20.6803C30.0959 20.603 31.0472 20.8427 31.879 21.3696C32.7108 21.8966 33.3863 22.6873 33.8212 23.6433L31.25 25.4925C31.0825 25.0185 30.7909 24.613 30.4139 24.3297C30.0368 24.0464 29.5921 23.8987 29.1387 23.9063C28.9409 23.884 28.7412 23.9083 28.5522 23.9777C28.3632 24.0471 28.1892 24.16 28.0411 24.3092C27.8931 24.4584 27.7743 24.6407 27.6923 24.8445C27.6103 25.0482 27.567 25.2689 27.565 25.4925C27.565 26.6021 28.1762 27.0521 29.5875 27.7425L30.41 28.1391C33.205 29.4877 34.785 30.8616 34.785 33.9511C34.785 37.2825 32.4587 39.1078 29.335 39.1078C28.1179 39.1951 26.9043 38.8842 25.8408 38.2127C24.7772 37.5412 23.9091 36.5378 23.3412 35.3236L26.0112 33.5743ZM14.3925 33.8949C14.9087 34.9257 15.3787 35.7975 16.5087 35.7975C17.5887 35.7975 18.2712 35.3222 18.2712 33.473V20.8913H21.56V33.5222C21.56 37.3528 19.56 39.0966 16.6487 39.0966C15.6197 39.1599 14.5977 38.8714 13.7171 38.269C12.8365 37.6666 12.1386 36.7786 11.715 35.7216L14.3925 33.8949Z" fill="black"/>
</svg>
