<svg width="40" height="45" viewBox="0 0 40 45" fill="none" xmlns="http://www.w3.org/2000/svg">
<path fill-rule="evenodd" clip-rule="evenodd" d="M23.1087 2.8125C22.8685 2.81628 22.6305 2.86376 22.4037 2.95312C24.4225 4.44656 22.0413 6.60938 23.1537 8.4375C23.0771 7.8226 23.164 7.19593 23.4036 6.63657C23.6432 6.07721 24.0247 5.61022 24.5 5.29453C24.8562 4.96125 25.085 4.84172 25.0087 4.29047C24.885 3.38766 23.815 2.8125 23.1087 2.8125ZM25.9837 3.39469C25.705 4.97391 25.3587 5.03156 24.33 6.04828C23.9287 6.40415 23.6456 6.90155 23.5261 7.46042C23.4066 8.0193 23.4577 8.60715 23.6712 9.12937C19.4212 7.27313 13.9738 6.15094 9.98 9.36281C8.54375 10.5173 7.6675 12.1753 5.89625 12.8517C4.75125 13.2933 3.62625 13.1625 2.90875 14.4394C2.64634 14.8081 2.50926 15.2699 2.52209 15.742C2.53492 16.2141 2.69681 16.6656 2.97875 17.0156C3.1925 17.2617 3.60375 17.4192 3.77375 17.6695C3.8725 17.8102 3.87 17.9508 3.96375 18.1378C4.12943 18.5737 4.36888 18.9691 4.66875 19.3022C4.8525 19.4723 5.48375 19.6383 5.59125 19.8197C5.72625 20.0461 5.37625 20.9447 5.67 21.0853C5.8675 21.188 6.44625 20.0391 6.5025 19.9378C6.3875 20.842 6.23625 22.4466 7.14 21.1106C7.56875 20.4764 7.595 20.2669 8.31625 20.1263C8.77781 20.036 9.24432 19.9815 9.7125 19.9631C12.3871 19.8579 14.9958 20.9108 17.0009 22.9049C19.006 24.899 20.2548 27.6824 20.49 30.6816C20.355 29.9784 19.5387 28.8534 18.7787 29.1206C18.455 29.2331 18.335 29.8617 18.1225 30.2259C17.8538 30.6878 17.5228 31.0996 17.1413 31.4466C17.2058 30.7648 17.1755 30.0759 17.0512 29.4047C16.8237 30.4566 16.3675 32.2017 15.2188 31.9191C14.8361 31.8533 14.4775 31.6679 14.184 31.384C13.8905 31.1 13.6738 30.7289 13.5588 30.3131C13.41 29.2444 14.4137 27.9914 12.8 27.9028C9.5625 27.7242 10.3112 33.0806 12.2225 34.477C11.7832 34.5317 11.3548 34.6661 10.9537 34.875C12.1678 35.6682 13.5358 36.1157 14.9387 36.1784C16.3415 36.2411 17.7368 35.9172 19.003 35.2349C20.2692 34.5526 21.368 33.5326 22.2038 32.2635C23.0397 30.9945 23.5872 29.5149 23.7987 27.9534C24.0769 29.3834 24.0705 30.8649 23.78 32.2917C23.6247 33.05 23.3923 33.7856 23.0875 34.4841C22.6743 35.4275 22.1252 36.2876 21.4625 37.0294C21.07 37.4667 20.35 37.9069 20.1025 38.3527C21.6175 38.1267 23.0979 37.6687 24.5025 36.9914C23.0484 39.232 21.112 41.02 18.875 42.1875C21.2735 41.9966 23.592 41.1371 25.6215 39.6864C27.6509 38.2358 29.3275 36.2396 30.5 33.878C30.1263 36.2399 29.2964 38.4807 28.0687 40.4423C29.7199 39.1988 31.1247 37.5846 32.1949 35.7011C33.265 33.8176 33.9775 31.7055 34.2875 29.4975C34.5953 31.1138 34.6834 32.7733 34.5487 34.4194C35.9051 32.2991 36.8214 29.8635 37.2301 27.292C37.6387 24.7205 37.5293 22.0786 36.91 19.5609C36.4363 17.6038 35.7259 15.7291 34.7987 13.9894C34.4407 13.3115 34.0489 12.657 33.625 12.0291C33.4587 11.7858 32.57 10.8956 32.57 10.6228C32.5625 10.65 32.5562 10.65 32.5512 10.6228C32.5512 15.1903 28.1762 18.1223 24.5125 16.8989C25.9056 16.7774 27.2224 16.1341 28.2524 15.0719C29.2824 14.0097 29.9664 12.5898 30.195 11.0391C30.3974 9.4121 30.0871 7.75676 29.3178 6.36038C28.5485 4.96399 27.3689 3.91471 25.9837 3.39469Z" fill="#EA2845"/>
</svg>
