<svg width="40" height="45" viewBox="0 0 40 45" fill="none" xmlns="http://www.w3.org/2000/svg">
<path d="M31.2362 11.1601L31.2013 11.1475C24.2263 11.1475 24.7638 15.0765 24.7638 15.0765V29.9898C24.7638 29.9898 24.7562 33.8556 27.9662 33.8556H27.9888C31.13 33.8556 31.1262 29.9926 31.1262 29.9926V23.2314H34.8412C37.5 23.2314 37.5 21.3175 37.5 21.3175V14.4086C37.5 14.4086 37.9163 11.1601 31.2362 11.1601ZM35.8612 14.7334C35.8557 14.9876 35.7833 15.2343 35.6531 15.4422C35.523 15.6501 35.3409 15.8099 35.13 15.9013C34.9191 15.9928 34.6888 16.0118 34.4683 15.956C34.2477 15.9002 34.0469 15.772 33.8911 15.5877C33.7354 15.4034 33.6317 15.1713 33.5932 14.9207C33.5548 14.6701 33.5833 14.4123 33.6751 14.18C33.7669 13.9476 33.9179 13.7511 34.109 13.6153C34.3002 13.4795 34.5228 13.4105 34.7487 13.4171L34.7187 13.427C34.8688 13.427 35.0174 13.4602 35.156 13.5248C35.2946 13.5894 35.4205 13.6841 35.5266 13.8035C35.6327 13.9228 35.7169 14.0645 35.7743 14.2204C35.8317 14.3764 35.8612 14.5435 35.8612 14.7123V14.7334Z" fill="url(#paint0_linear_53_211)"/>
<path d="M20.0125 33.8527H19.9913C16.79 33.8527 16.79 28.8113 16.79 28.8113V16.4644C16.79 16.4644 16.7813 11.499 19.9913 11.5088H20.0138C23.1513 11.5088 23.1513 16.4644 23.1513 16.4644V28.8113C23.1513 28.8113 23.1513 33.8513 20.0125 33.8527ZM21.1963 30.6183C21.1905 30.3642 21.1179 30.1177 20.9876 29.91C20.8572 29.7022 20.6751 29.5427 20.4642 29.4514C20.2532 29.3602 20.023 29.3414 19.8026 29.3973C19.5821 29.4533 19.3814 29.5816 19.2258 29.7659C19.0701 29.9503 18.9666 30.1824 18.9282 30.4329C18.8898 30.6835 18.9184 30.9412 19.0102 31.1735C19.1021 31.4058 19.2531 31.6022 19.4442 31.7379C19.6353 31.8737 19.8578 31.9426 20.0838 31.936L20.0538 31.9261C20.3568 31.9261 20.6474 31.7907 20.8616 31.5497C21.0759 31.3086 21.1963 30.9817 21.1963 30.6408V30.6183Z" fill="url(#paint1_linear_53_211)"/>
<path d="M8.98251 11.1599L8.94751 11.1431C1.97251 11.1431 2.51001 15.0721 2.51001 15.0721V29.9896C2.51001 29.9896 2.50001 33.8568 5.71001 33.8568H5.73251C8.87376 33.8568 8.87001 29.9938 8.87001 29.9938V23.2312H12.5838C15.245 23.2312 15.2388 21.3173 15.2388 21.3173V14.4084C15.2388 14.4084 15.6575 11.1599 8.98251 11.1599ZM13.6075 14.7332C13.6017 14.9876 13.5289 15.2343 13.3984 15.4421C13.2678 15.6499 13.0854 15.8095 12.8742 15.9005C12.6629 15.9916 12.4325 16.01 12.2119 15.9536C11.9913 15.8971 11.7906 15.7683 11.6352 15.5834C11.4798 15.3985 11.3767 15.1658 11.3389 14.9149C11.3012 14.6641 11.3304 14.4062 11.423 14.174C11.5157 13.9419 11.6674 13.7459 11.8592 13.6108C12.0509 13.4758 12.2739 13.4079 12.5 13.4156L12.47 13.4254C12.773 13.4254 13.0636 13.5608 13.2779 13.8019C13.4921 14.0429 13.6125 14.3698 13.6125 14.7107V14.7318L13.6075 14.7332Z" fill="url(#paint2_linear_53_211)"/>
<defs>
<linearGradient id="paint0_linear_53_211" x1="22.0613" y1="12.4384" x2="36.6624" y2="25.4184" gradientUnits="userSpaceOnUse">
<stop stop-color="#387EB8"/>
<stop offset="1" stop-color="#366994"/>
</linearGradient>
<linearGradient id="paint1_linear_53_211" x1="12.5138" y1="14.2707" x2="26.9707" y2="27.12" gradientUnits="userSpaceOnUse">
<stop stop-color="#FFE052"/>
<stop offset="1" stop-color="#FFC331"/>
</linearGradient>
<linearGradient id="paint2_linear_53_211" x1="-0.193737" y1="12.4396" x2="14.4084" y2="25.4181" gradientUnits="userSpaceOnUse">
<stop stop-color="#387EB8"/>
<stop offset="1" stop-color="#366994"/>
</linearGradient>
</defs>
</svg>
