<svg width="40" height="45" viewBox="0 0 40 45" fill="none" xmlns="http://www.w3.org/2000/svg">
<path d="M19.8562 2.95315C10.9812 2.95315 11.5425 7.27034 11.5425 7.27034V11.7563H19.9825V13.1625H8.18125C8.18125 13.1625 2.5 12.375 2.5 22.5071C2.5 32.6391 7.51625 32.2271 7.51625 32.2271H10.4125V27.5007C10.4125 27.5007 10.25 21.8574 15.2875 21.8574H23.74C23.74 21.8574 28.455 21.9417 28.455 16.7217V8.15628C28.455 8.15628 29.17 2.93628 19.9025 2.93628L19.8562 2.95315ZM15.1912 5.95831C15.4913 5.94979 15.7869 6.04157 16.0405 6.22203C16.2942 6.40249 16.4946 6.66354 16.6164 6.97214C16.7383 7.28075 16.776 7.62307 16.7248 7.95579C16.6737 8.28852 16.536 8.59672 16.3292 8.84141C16.1223 9.08609 15.8557 9.25628 15.5628 9.33045C15.27 9.40462 14.9642 9.37943 14.6841 9.25808C14.4041 9.13672 14.1622 8.92465 13.9893 8.64868C13.8163 8.37271 13.72 8.04524 13.7125 7.70769V7.67956C13.7125 7.22679 13.8724 6.79256 14.157 6.4724C14.4416 6.15224 14.8275 5.97237 15.23 5.97237L15.1912 5.95831Z" fill="url(#paint0_linear_52_163)"/>
<path d="M20.1062 42.061C28.9812 42.061 28.42 37.7297 28.42 37.7297V33.2578H19.9812V31.8516H31.8187C31.8187 31.8516 37.5 32.566 37.5 22.493C37.5 12.42 32.4837 12.773 32.4837 12.773H29.55V17.4375C29.55 17.4375 29.7125 23.0808 24.675 23.0808H16.2187C16.2187 23.0808 11.5 23.0007 11.5 28.2207V36.8438C11.5 36.8438 10.785 42.0638 20.0525 42.0638H20.1025L20.1062 42.061ZM24.7712 39.0417C24.4712 39.0503 24.1756 38.9585 23.9219 38.778C23.6683 38.5976 23.4678 38.3365 23.346 38.0279C23.2242 37.7193 23.1865 37.377 23.2376 37.0443C23.2888 36.7115 23.4265 36.4033 23.6333 36.1587C23.8401 35.914 24.1068 35.7438 24.3996 35.6696C24.6925 35.5954 24.9983 35.6206 25.2783 35.742C25.5584 35.8633 25.8003 36.0754 25.9732 36.3514C26.1462 36.6273 26.2425 36.9548 26.25 37.2924V37.3346C26.25 37.7873 26.0901 38.2216 25.8055 38.5417C25.5209 38.8619 25.135 39.0417 24.7325 39.0417H24.7712Z" fill="url(#paint1_linear_52_163)"/>
<defs>
<linearGradient id="paint0_linear_52_163" x1="5.95895" y1="6.78223" x2="24.5095" y2="23.2343" gradientUnits="userSpaceOnUse">
<stop stop-color="#387EB8"/>
<stop offset="1" stop-color="#366994"/>
</linearGradient>
<linearGradient id="paint1_linear_52_163" x1="15.7844" y1="18.9261" x2="36.654" y2="35.1213" gradientUnits="userSpaceOnUse">
<stop stop-color="#FFE052"/>
<stop offset="1" stop-color="#FFC331"/>
</linearGradient>
</defs>
</svg>
