<svg width="55" height="50" viewBox="0 0 55 50" fill="none" xmlns="http://www.w3.org/2000/svg">
<path d="M27.5 28.8656C29.8731 28.8656 31.7969 27.1167 31.7969 24.9594C31.7969 22.802 29.8731 21.0531 27.5 21.0531C25.1269 21.0531 23.2031 22.802 23.2031 24.9594C23.2031 27.1167 25.1269 28.8656 27.5 28.8656Z" fill="#00D8FF"/>
<path d="M27.5 33.9156C22.3354 34.0292 17.1837 33.3963 12.2375 32.0406C9.95263 31.3822 7.82157 30.3449 5.95203 28.9812C5.23863 28.5154 4.64453 27.9147 4.21049 27.2205C3.77646 26.5263 3.51276 25.7549 3.4375 24.9594C3.4375 22.3766 6.55875 19.8453 11.7872 18.1891C16.8656 16.7215 22.1717 16.0102 27.5 16.0828C32.7571 16.016 37.9922 16.7144 43.0066 18.1516C45.2071 18.7893 47.2659 19.7764 49.0875 21.0672C49.7887 21.5113 50.3739 22.0902 50.8016 22.7628C51.2293 23.4354 51.4891 24.1853 51.5625 24.9594C51.5625 27.6437 48.0734 30.3641 42.4531 32.0547C37.6027 33.3662 32.5597 33.9938 27.5 33.9156ZM27.5 17.9516C22.4024 17.8896 17.3264 18.5658 12.4627 19.9547C7.65016 21.4812 5.49313 23.5687 5.49313 24.9547C5.49313 26.4047 7.81172 28.6844 12.9027 30.2672C17.6345 31.5576 22.5614 32.1582 27.5 32.0469C32.3407 32.1256 37.1661 31.5301 41.8086 30.2812C47.0938 28.6891 49.5 26.4062 49.5 24.9594C49.4133 24.4628 49.2142 23.9881 48.9154 23.565C48.6167 23.142 48.2246 22.7799 47.7641 22.5016C46.1343 21.3565 44.2951 20.4816 42.3311 19.9172C37.5341 18.548 32.5273 17.8845 27.5 17.9516Z" fill="#00D8FF"/>
<path d="M17.7375 44.4422C16.9357 44.4589 16.1434 44.2821 15.4413 43.9297C12.98 42.6391 12.1275 38.9172 13.1605 33.9719C14.2994 29.2392 16.2728 24.7051 19.0042 20.5453C21.5664 16.372 24.8466 12.5983 28.7203 9.36718C30.4273 7.95265 32.3965 6.82427 34.5366 6.03436C35.3106 5.70458 36.155 5.53363 37.0098 5.53363C37.8647 5.53363 38.7091 5.70458 39.4831 6.03436C42.0423 7.37499 42.8897 11.4812 41.6952 16.7516C40.5211 21.2274 38.5989 25.5132 35.9958 29.4594C33.5238 33.5834 30.3469 37.3242 26.5839 40.5422C24.8149 42.0122 22.762 43.1718 20.5288 43.9625C19.6347 44.2642 18.691 44.4263 17.7375 44.4422ZM20.7848 21.4734C18.1794 25.4568 16.288 29.7917 15.1817 34.3156C14.2313 38.8703 15.1439 41.6094 16.4708 42.3062C17.8458 43.0297 21.1836 42.3437 25.2364 39.125C28.8286 36.0421 31.8609 32.4612 34.2203 28.5156C36.7141 24.743 38.5579 20.6455 39.6877 16.3656C40.8117 11.4047 39.8406 8.36718 38.4622 7.6453C37.9456 7.46534 37.3935 7.38479 36.8408 7.40872C36.2882 7.43266 35.747 7.56057 35.2516 7.78436C33.3466 8.49897 31.5953 9.51347 30.0781 10.7812C26.3771 13.8762 23.2438 17.489 20.7969 21.4828L20.7848 21.4734Z" fill="#00D8FF"/>
<path d="M37.2573 44.4625C34.9284 44.4625 31.9705 43.1813 28.8905 40.7735C24.9488 37.513 21.6132 33.6944 19.0128 29.4657C16.3156 25.3631 14.3579 20.8946 13.2137 16.2297C12.7175 14.1774 12.6256 12.0613 12.9422 9.97972C13.0154 9.20754 13.274 8.45936 13.6999 7.78794C14.1257 7.11652 14.7084 6.5382 15.4069 6.09378C17.9626 4.74847 22.299 6.13128 26.7248 9.70315C30.404 12.8628 33.5283 16.5168 35.9889 20.5375C38.6844 24.5443 40.6627 28.9149 41.8498 33.486C42.3674 35.6136 42.4472 37.81 42.0853 39.9641C41.9992 40.7585 41.7251 41.5265 41.2819 42.2156C40.8387 42.9047 40.2368 43.4985 39.5175 43.9563C38.8268 44.3043 38.0468 44.479 37.2573 44.4625ZM20.7917 28.525C23.2863 32.5663 26.4727 36.2209 30.2311 39.3516C34.0965 42.375 37.1628 43.025 38.4811 42.3203C39.8561 41.5938 40.8701 38.6282 39.8251 33.8297C38.6802 29.4656 36.7828 25.2936 34.2031 21.4688C31.855 17.6205 28.8728 14.1217 25.3601 11.0938C21.1939 7.73128 17.8148 6.97972 16.4381 7.70472C16.009 8.02172 15.6569 8.41616 15.4039 8.86313C15.151 9.31011 15.0028 9.7999 14.9686 10.3016C14.6953 12.158 14.7843 14.0436 15.2315 15.8719C16.3321 20.3331 18.2097 24.6057 20.7934 28.5282L20.7917 28.525Z" fill="#00D8FF"/>
</svg>
