<svg width="40" height="45" viewBox="0 0 40 45" fill="none" xmlns="http://www.w3.org/2000/svg">
<path d="M20 25.979C21.7259 25.979 23.125 24.405 23.125 22.4634C23.125 20.5218 21.7259 18.9478 20 18.9478C18.2741 18.9478 16.875 20.5218 16.875 22.4634C16.875 24.405 18.2741 25.979 20 25.979Z" fill="#09D3AC"/>
<path d="M20 30.524C16.2439 30.6263 12.4972 30.0567 8.9 28.8365C7.23828 28.2439 5.68842 27.3104 4.32875 26.0831C3.80991 25.6638 3.37784 25.1233 3.06218 24.4985C2.74652 23.8737 2.55474 23.1794 2.5 22.4634C2.5 20.1389 4.77 17.8608 8.5725 16.3701C12.2659 15.0493 16.1249 14.4092 20 14.4745C23.8234 14.4144 27.6307 15.043 31.2775 16.3364C32.8779 16.9104 34.3752 17.7988 35.7 18.9604C36.21 19.3602 36.6356 19.8812 36.9466 20.4865C37.2577 21.0919 37.4466 21.7668 37.5 22.4634C37.5 24.8794 34.9625 27.3276 30.875 28.8492C27.3474 30.0296 23.6798 30.5944 20 30.524ZM20 16.1564C16.2926 16.1006 12.601 16.7092 9.06375 17.9592C5.56375 19.3331 3.995 21.2119 3.995 22.4592C3.995 23.7642 5.68125 25.8159 9.38375 27.2404C12.8251 28.4018 16.4083 28.9424 20 28.8422C23.5205 28.913 27.0299 28.3771 30.4062 27.2531C34.25 25.8201 36 23.7656 36 22.4634C35.9369 22.0165 35.7922 21.5892 35.5749 21.2085C35.3576 20.8278 35.0724 20.5019 34.7375 20.2514C33.5522 19.2208 32.2146 18.4334 30.7862 17.9254C27.2975 16.6932 23.6562 16.096 20 16.1564Z" fill="#09D3AC"/>
<path d="M12.9 39.9979C12.3169 40.013 11.7406 39.8538 11.23 39.5367C9.44 38.3751 8.82 35.0254 9.57125 30.5746C10.3996 26.3152 11.8348 22.2346 13.8213 18.4907C15.6847 14.7348 18.0702 11.3384 20.8875 8.43042C22.129 7.15734 23.5611 6.1418 25.1175 5.43088C25.6805 5.13408 26.2945 4.98022 26.9163 4.98022C27.538 4.98022 28.1521 5.13408 28.715 5.43088C30.5763 6.63745 31.1925 10.3331 30.3238 15.0764C29.4699 19.1046 28.072 22.9618 26.1788 26.5134C24.3809 30.225 22.0705 33.5918 19.3338 36.4879C18.0472 37.8109 16.5542 38.8546 14.93 39.5662C14.2798 39.8377 13.5935 39.9837 12.9 39.9979ZM15.1163 19.326C13.2214 22.911 11.8458 26.8125 11.0413 30.884C10.35 34.9832 11.0138 37.4484 11.9788 38.0756C12.9788 38.7267 15.4062 38.1093 18.3538 35.2124C20.9663 32.4378 23.1715 29.2151 24.8875 25.664C26.7012 22.2686 28.0421 18.5809 28.8638 14.729C29.6812 10.2642 28.975 7.53042 27.9725 6.88073C27.5968 6.71877 27.1952 6.64626 26.7933 6.66781C26.3914 6.68935 25.9978 6.80447 25.6375 7.00588C24.2521 7.64903 22.9784 8.56208 21.875 9.70307C19.1833 12.4886 16.9046 15.74 15.125 19.3345L15.1163 19.326Z" fill="#09D3AC"/>
<path d="M27.0962 40.0163C25.4025 40.0163 23.2512 38.8632 21.0112 36.6961C18.1446 33.7617 15.7187 30.325 13.8275 26.5191C11.8659 22.8268 10.4421 18.8052 9.61 14.6068C9.24913 12.7596 9.18226 10.8551 9.4125 8.98175C9.46572 8.28679 9.65382 7.61343 9.96354 7.00915C10.2732 6.40487 10.697 5.88439 11.205 5.48441C13.0637 4.27362 16.2175 5.51816 19.4362 8.73284C22.112 11.5765 24.3842 14.8651 26.1737 18.4838C28.1341 22.0899 29.5729 26.0234 30.4362 30.1374C30.8126 32.0523 30.8707 34.029 30.6075 35.9677C30.5449 36.6826 30.3456 37.3739 30.0232 37.9941C29.7009 38.6142 29.2631 39.1486 28.74 39.5607C28.2377 39.8739 27.6704 40.0311 27.0962 40.0163ZM15.1212 25.6725C16.9355 29.3097 19.2529 32.5988 21.9862 35.4164C24.7975 38.1375 27.0275 38.7225 27.9862 38.0883C28.9862 37.4344 29.7237 34.7653 28.9637 30.4468C28.1311 26.519 26.7511 22.7643 24.875 19.3219C23.1673 15.8585 20.9984 12.7095 18.4437 9.98441C15.4137 6.95816 12.9562 6.28175 11.955 6.93425C11.6429 7.21955 11.3868 7.57455 11.2029 7.97683C11.0189 8.3791 10.9111 8.81992 10.8862 9.27144C10.6875 10.9422 10.7522 12.6393 11.0775 14.2847C11.8779 18.2998 13.2434 22.1451 15.1225 25.6753L15.1212 25.6725Z" fill="#09D3AC"/>
</svg>
