<svg width="40" height="45" viewBox="0 0 40 45" fill="none" xmlns="http://www.w3.org/2000/svg">
<g clip-path="url(#clip0_20_263)">
<path d="M27.7153 31.3032C29.1913 31.1228 30.3111 29.6209 30.2602 27.8183C30.2094 26.0159 28.9368 24.5739 27.4099 24.5739H27.3082C25.7301 24.634 24.5086 26.1961 24.5596 28.0586C24.6105 28.9599 24.9158 29.7409 25.3739 30.2817C23.6434 34.3073 20.9967 37.2513 17.0266 39.7147C14.3289 41.397 11.5295 41.9979 8.73018 41.5774C6.43968 41.2169 4.65822 40.0153 3.53829 38.0324C1.90963 35.0884 1.75698 31.9039 3.13128 28.7196C4.09841 26.4364 5.6252 24.7541 6.59233 23.9129C6.38875 23.1318 6.0833 21.8101 5.93065 20.8488C-1.44971 27.1575 -0.68616 35.6892 1.5534 39.7147C3.23299 42.719 6.64326 44.5815 10.4098 44.5815C11.4277 44.5815 12.4456 44.4613 13.4637 44.161C19.9787 42.6589 24.916 38.0925 27.7153 31.3032ZM36.6736 23.853C32.8052 18.5055 27.1046 15.5615 20.5895 15.5615H19.7752C19.3171 14.48 18.3499 13.7589 17.2811 13.7589H17.1792C15.6015 13.8191 14.38 15.3811 14.4308 17.2439C14.4817 19.0462 15.7541 20.4883 17.2811 20.4883H17.3828C18.5026 20.4282 19.4697 19.587 19.8769 18.4454H20.7931C24.6614 18.4454 28.3261 19.7672 31.6346 22.3508C34.1795 24.3336 36.0119 26.9172 37.0298 30.0414C37.8951 32.5649 37.8441 35.0283 36.9279 37.1313C35.5029 40.3156 33.1107 42.058 29.9549 42.058C27.9189 42.058 25.9848 41.3369 24.9667 40.7962C24.4069 41.397 23.3889 42.3583 22.6763 42.9593C24.865 44.1609 27.1046 44.8218 29.2423 44.8218C34.1286 44.8218 37.7424 41.6374 39.1167 38.4531C40.5927 34.9681 40.4909 28.9599 36.6736 23.853ZM10.8169 32.3244C10.8679 34.127 12.1403 35.5688 13.6672 35.5688H13.7691C15.347 35.5089 16.5685 33.9466 16.5175 32.0841C16.4668 30.2815 15.1942 28.8397 13.6672 28.8397H13.5655C13.4637 28.8397 13.3109 28.8397 13.2093 28.8996C11.1224 24.814 10.2571 20.368 10.5626 15.5613C10.766 11.9564 11.7841 8.83199 13.5655 6.24836C15.0415 4.02529 17.8918 2.94381 19.8261 2.88387C25.2213 2.76363 27.5116 10.6945 27.6644 13.879C28.3261 14.0592 29.4459 14.4799 30.2094 14.7803C29.5985 5.04701 24.5086 0 19.6225 0C15.0415 0 10.8169 3.90541 9.13718 9.67334C6.79591 17.3639 8.32285 24.7541 11.1732 30.5821C10.9188 31.0026 10.766 31.6634 10.8169 32.3244Z" fill="#764ABC"/>
</g>
<defs>
<clipPath id="clip0_20_263">
<rect width="40" height="45" fill="white"/>
</clipPath>
</defs>
</svg>
