<svg width="40" height="45" viewBox="0 0 40 45" fill="none" xmlns="http://www.w3.org/2000/svg">
<path d="M35.86 2.8125H4.14C3.23425 2.8125 2.5 3.63853 2.5 4.6575V40.3425C2.5 41.3615 3.23425 42.1875 4.14 42.1875H35.86C36.7657 42.1875 37.5 41.3615 37.5 40.3425V4.6575C37.5 3.63853 36.7657 2.8125 35.86 2.8125Z" fill="#3178C6"/>
<path fill-rule="evenodd" clip-rule="evenodd" d="M22.8063 33.4111V37.7254C23.503 38.1123 24.2456 38.3847 25.0113 38.534C25.896 38.7178 26.7941 38.8082 27.6938 38.804C28.5706 38.8087 29.4455 38.7093 30.3038 38.5073C31.0744 38.3321 31.8096 37.9984 32.4725 37.5229C33.0879 37.076 33.5951 36.4643 33.9488 35.7426C34.582 34.2482 34.6656 32.5331 34.1812 30.9698C33.9769 30.3852 33.6723 29.8515 33.285 29.399C32.8692 28.9179 32.3969 28.503 31.8813 28.1658C31.2876 27.7746 30.6707 27.4297 30.035 27.1336C29.535 26.9001 29.085 26.6733 28.685 26.4529C28.3297 26.2616 27.9897 26.0362 27.6688 25.7793C27.4174 25.5811 27.199 25.3345 27.0238 25.0509C26.8723 24.7934 26.7935 24.4905 26.7975 24.1818C26.7942 23.8977 26.8645 23.6187 27 23.3789C27.1471 23.1279 27.3434 22.9182 27.5738 22.7658C27.8553 22.5792 28.1617 22.4449 28.4813 22.3678C28.8735 22.2697 29.2745 22.2226 29.6763 22.2272C30.0142 22.2285 30.3516 22.2557 30.6863 22.3087C31.0476 22.3637 31.4051 22.4469 31.7563 22.5576C32.1134 22.669 32.4627 22.81 32.8013 22.9795C33.1298 23.1443 33.4441 23.3429 33.74 23.5729V19.5468C33.1239 19.2846 32.485 19.0961 31.8337 18.9843C31.0474 18.8556 30.2534 18.795 29.4587 18.8029C28.5901 18.7977 27.7241 18.9086 26.8788 19.1334C26.1147 19.3298 25.3882 19.679 24.7338 20.1642C24.1258 20.6198 23.6239 21.2327 23.27 21.9515C22.895 22.7498 22.7094 23.6435 22.7313 24.5461C22.7036 25.7397 23.053 26.9056 23.7175 27.8367C24.5327 28.869 25.5607 29.6604 26.7113 30.1415C27.2362 30.3853 27.7258 30.6239 28.18 30.8573C28.5898 31.0624 28.9836 31.3056 29.3575 31.5843C29.6591 31.805 29.9239 32.0835 30.14 32.407C30.33 32.7005 30.4308 33.055 30.4275 33.4181C30.4292 33.6902 30.3671 33.9579 30.2475 34.1943C30.1146 34.4484 29.9278 34.6615 29.7038 34.8145C29.4235 35.0067 29.1168 35.1455 28.7963 35.2251C28.3787 35.3302 27.9516 35.3797 27.5238 35.3728C26.6841 35.3711 25.8512 35.2045 25.0625 34.8806C24.2385 34.5461 23.4744 34.0484 22.8063 33.4111ZM16.3637 22.6701H21.3638V19.1165H7.4225V22.6701H12.4V38.4961H16.3637V22.6701Z" fill="white"/>
</svg>
